<svg width="24.000000" height="24.000000" viewBox="0 0 24 24" fill="none" xmlns="http://www.w3.org/2000/svg" xmlns:xlink="http://www.w3.org/1999/xlink">
	<desc>
			Created with Pixso.
	</desc>
	<defs>
		<clipPath id="clip1_5247">
			<rect id="instagram" width="24.000000" height="24.000000" fill="white" fill-opacity="0"/>
		</clipPath>
	</defs>
	<g clip-path="url(#clip1_5247)">
		<path id="Vector" d="M17 2C19.7615 2 22 4.23853 22 7L22 17C22 19.7615 19.7615 22 17 22L7 22C4.23853 22 2 19.7615 2 17L2 7C2 4.23853 4.23853 2 7 2L17 2Z" stroke="#FFFFFF" stroke-opacity="1.000000" stroke-width="2.000000" stroke-linejoin="round"/>
		<path id="Vector" d="M15.5938 13.7988C15.2063 14.5457 14.593 15.1512 13.8416 15.5295C13.0901 15.9077 12.2383 16.0394 11.4077 15.9058C10.5771 15.7721 9.80981 15.3799 9.21484 14.785C8.61987 14.1901 8.22778 13.4227 8.09399 12.592C7.96045 11.7614 8.09204 10.9097 8.47021 10.1582C8.84863 9.40662 9.4541 8.79358 10.2009 8.40601C10.9478 8.01855 11.7976 7.87634 12.6299 7.99976C13.4788 8.12573 14.2649 8.52124 14.8716 9.12817C15.4785 9.73499 15.874 10.5209 16 11.3699C16.1233 12.202 15.9812 13.052 15.5938 13.7988Z" stroke="#FFFFFF" stroke-opacity="1.000000" stroke-width="2.000000" stroke-linejoin="round"/>
		<path id="Vector" d="M15.5938 13.7988C15.2063 14.5457 14.593 15.1512 13.8416 15.5295C13.0901 15.9077 12.2383 16.0394 11.4077 15.9058C10.5771 15.7721 9.80981 15.3799 9.21484 14.785C8.61987 14.1901 8.22778 13.4227 8.09399 12.592C7.96045 11.7614 8.09204 10.9097 8.47021 10.1582C8.84863 9.40662 9.4541 8.79358 10.2009 8.40601C10.9478 8.01855 11.7976 7.87634 12.6299 7.99976C13.4788 8.12573 14.2649 8.52124 14.8716 9.12817C15.4785 9.73499 15.874 10.5209 16 11.3699C16.1233 12.202 15.9812 13.052 15.5938 13.7988Z" stroke="#FFFFFF" stroke-opacity="1.000000" stroke-width="2.000000" stroke-linejoin="round"/>
		<path id="Vector" d="M17.5 6.5L17.51 6.5" stroke="#FFFFFF" stroke-opacity="1.000000" stroke-width="2.000000" stroke-linejoin="round" stroke-linecap="round"/>
		<path id="Vector" d="M17.5 6.5L17.51 6.5" stroke="#FFFFFF" stroke-opacity="1.000000" stroke-width="2.000000" stroke-linejoin="round" stroke-linecap="round"/>
	</g>
</svg>
